<svg xmlns="http://www.w3.org/2000/svg" width="174" height="31" viewBox="0 0 174 31" fill="none">
  <g clip-path="url(#clip0_1_5)">
    <path d="M142.516 0H139.289V13.8404H142.516V0Z" fill="white"/>
    <path d="M128.89 0H123.896V3.22632H128.89V13.8404H132.112V3.22632H137.106V0H132.112H128.89Z" fill="white"/>
    <path d="M116.879 0H108.504V13.8404H111.731V10.0563H118.492V13.8404H121.719V4.83401C121.714 2.16546 119.548 0 116.879 0ZM118.492 6.82995H111.731V3.22085H116.884C117.776 3.22085 118.498 3.94267 118.498 4.83401V6.82995H118.492Z" fill="white"/>
    <path d="M154.681 9.00635C154.681 9.89769 153.959 10.6195 153.067 10.6195H147.914V0H144.687V13.8404H153.062C155.731 13.8404 157.897 11.6749 157.897 9.00635V0H154.67V9.00635H154.681Z" fill="white"/>
    <path d="M90.6836 10.0563V4.83401C90.6836 2.16546 88.5175 0 85.8482 0H77.7146V13.8404H80.9418V10.0563H84.344L86.9969 13.8404H90.9297L88.2769 10.0563H90.6836ZM87.4564 6.82995H80.9363V3.22085H85.8428C86.7344 3.22085 87.4564 3.94267 87.4564 4.83401V6.82995Z" fill="white"/>
    <path d="M93.1067 4.83401V13.8404H106.316V10.614H96.3284V8.53061H104.325V5.30429H96.3284V4.82854C96.3284 3.9372 97.0504 3.21538 97.942 3.21538H106.316V0H97.942C95.2727 0 93.1067 2.16546 93.1067 4.83401Z" fill="white"/>
    <path d="M164.926 3.22632H173.3V0H164.926C162.256 0 160.09 2.16546 160.09 4.83401V13.8404H173.3V10.614H163.312V8.53061H171.309V5.30429H163.312V4.82854C163.312 3.9372 164.034 3.21538 164.926 3.21538V3.22632Z" fill="white"/>
    <path d="M62.3224 4.83401V13.8404H75.5321V10.614H65.5442V4.83401C65.5442 3.94267 66.2662 3.22085 67.1578 3.22085H75.5321V0H67.1578C64.4885 0 62.3224 2.16546 62.3224 4.83401Z" fill="white"/>
    <path d="M135.957 17.1596H132.73V31H135.957V17.1596Z" fill="white"/>
    <path d="M138.134 21.9937V31H153.625V27.7737H141.362V25.6903H151.639V22.4639H141.362V21.9882C141.362 21.0969 142.084 20.375 142.975 20.375H153.625V17.1487H142.975C140.306 17.1487 138.14 19.3142 138.14 21.9827L138.134 21.9937Z" fill="white"/>
    <path d="M97.2419 27.2159V21.9936C97.2419 19.3251 95.0758 17.1596 92.4066 17.1596H83.1352V31H86.3624V27.2159H90.9024L93.5552 31H97.488L94.8352 27.2159H97.2419ZM94.0147 23.9896H86.3569V20.3805H92.4066C93.2981 20.3805 94.0202 21.1023 94.0202 21.9936V23.9896H94.0147Z" fill="white"/>
    <path d="M62.3224 21.9937V31H80.9527V27.7737H65.5442V21.9937C65.5442 21.1023 66.2662 20.3805 67.1578 20.3805H80.9527V17.1542H67.1578C64.4885 17.1542 62.3224 19.3196 62.3224 21.9882V21.9937Z" fill="white"/>
    <path d="M110.315 17.1596H104.5C102.394 17.1596 100.6 18.5048 99.9385 20.3805C99.758 20.8836 99.665 21.4249 99.665 21.9936V26.1605C99.665 28.8291 101.831 30.9945 104.5 30.9945H110.315C112.421 30.9945 114.215 29.6493 114.877 27.7737C115.057 27.2706 115.15 26.7292 115.15 26.1605V21.9936C115.15 19.3251 112.984 17.1596 110.315 17.1596ZM111.928 26.166C111.928 27.0573 111.206 27.7791 110.315 27.7791H104.5C103.609 27.7791 102.887 27.0573 102.887 26.166V21.9936C102.887 21.1023 103.609 20.3805 104.5 20.3805H110.315C111.206 20.3805 111.928 21.1023 111.928 21.9936V26.166Z" fill="white"/>
    <path d="M127.326 26.5324L121.047 17.8268C120.746 17.4057 120.259 17.1596 119.739 17.1596H117.338V31H120.565V21.6273L127.326 31H130.553V17.1596H127.326V26.5324Z" fill="white"/>
    <path d="M160.643 20.386H173.3V17.1651H160.643C157.974 17.1651 155.807 19.3306 155.807 21.9991V25.6957H170.078V26.1715C170.078 27.0628 169.356 27.7846 168.465 27.7846H155.807V31.0055H168.465C171.134 31.0055 173.3 28.84 173.3 26.1715V22.4749H159.029V21.9991C159.029 21.1078 159.751 20.386 160.643 20.386Z" fill="white"/>
    <path d="M10.638 31L20.976 20.6648H10.638V15.4973C10.638 12.6428 12.9517 10.3297 15.807 10.3297H31.314V0H15.807C7.24121 0 0.299988 6.93932 0.299988 15.5027V31.0055H10.638V31Z" fill="white"/>
    <path d="M41.6465 0L31.3085 10.3352H41.6465V15.5027C41.6465 18.3572 39.3328 20.6703 36.4775 20.6703H20.9705V31.0055H36.4775C45.0433 31.0055 51.9845 24.0662 51.9845 15.5027V0H41.6465Z" fill="white"/>
  </g>
  <defs>
    <clipPath id="clip0_1_5">
      <rect width="0" height="1" fill="white" transform="translate(0.299988)"/>
    </clipPath>
  </defs>
</svg>